<svg width="24" height="24" viewBox="0 0 24 24" fill="none" xmlns="http://www.w3.org/2000/svg">
<g clip-path="url(#clip0_5984_20438)">
<path d="M15.5671 10L8.35326 2.87762C9.4468 2.31659 10.6864 2 12 2C16.4183 2 20 5.58172 20 10V14.3767L17 11.4147V10.1569C17 10.0702 16.9298 10 16.8431 10H15.5671Z" fill="#F53F3F"/>
<path d="M4 10C4 9.2627 4.09974 8.5487 4.28647 7.87074L7 10.5499V13C7 15.7614 9.23858 18 12 18C12.7444 18 13.4508 17.8373 14.0856 17.5456L16.5715 20H9.99989C6.75213 19.8588 4.15723 17.2472 4.03692 13.9986L4 13.0016V10Z" fill="#F53F3F"/>
<path d="M21.6219 19.528L4.44693 2.35306C4.2659 2.17203 3.97239 2.17203 3.79136 2.35306L3.13578 3.00864C2.95474 3.18967 2.95474 3.48319 3.13578 3.66422L20.3107 20.8392C20.4918 21.0202 20.7853 21.0202 20.9663 20.8392L21.6219 20.1836C21.8029 20.0026 21.8029 19.7091 21.6219 19.528Z" fill="#F53F3F"/>
</g>
<defs>
<clipPath id="clip0_5984_20438">
<rect width="24" height="24" fill="white"/>
</clipPath>
</defs>
</svg>
