<svg width="28" height="30" viewBox="0 0 28 30" fill="none" xmlns="http://www.w3.org/2000/svg">
<path d="M6 13C6 8.58172 9.58172 5 14 5C18.4183 5 22 8.58172 22 13V21.0714C22 22.1365 21.1365 23 20.0714 23H7.92857C6.86345 23 6 22.1365 6 21.0714V13Z" fill="white"/>
<path d="M9 13.1569C9 13.0702 9.07023 13 9.15686 13H18.8431C18.9298 13 19 13.0702 19 13.1569V16C19 18.7614 16.7614 21 14 21C11.2386 21 9 18.7614 9 16V13.1569Z" fill="#272E3B"/>
<path d="M21.9999 11.5912C21.3291 9.88795 19.9854 8.52456 18.2941 7.82813C19.9854 7.13169 21.3291 5.7683 21.9999 4.06504C22.6708 5.7683 24.0144 7.13169 25.7058 7.82813C24.0144 8.52456 22.6708 9.88795 21.9999 11.5912Z" fill="white" stroke="#1F2127"/>
<path d="M5.99994 26.7631C5.32906 25.0598 3.98544 23.6964 2.29409 23C3.98544 22.3036 5.32906 20.9402 5.99994 19.2369C6.67082 20.9402 8.01444 22.3036 9.7058 23C8.01444 23.6964 6.67082 25.0598 5.99994 26.7631Z" fill="white" stroke="#1F2127"/>
</svg>
