<svg width="24" height="24" viewBox="0 0 24 24" fill="none" xmlns="http://www.w3.org/2000/svg">
<path fill-rule="evenodd" clip-rule="evenodd" d="M5.57976 10.7458C5.56889 10.4972 5.39274 10.3022 5.17912 10.3021L4.36592 10.3023L4.30997 10.3083C4.11175 10.3461 3.96494 10.5519 3.97453 10.7914L3.98622 11.0095C4.27671 15.5335 7.33041 18.7882 11.1869 19.2332L11.1848 19.2791V20.4809H9.10246C8.92544 20.4809 8.78193 20.6244 8.78193 20.8014V21.763C8.78193 21.94 8.92543 22.0835 9.10246 22.0835H14.8719C15.0489 22.0835 15.1924 21.94 15.1924 21.763V20.8014C15.1924 20.6244 15.0489 20.4809 14.8719 20.4809H12.7894L12.789 19.2558L12.7874 19.2331C13.5203 19.1486 14.2242 18.9622 14.8856 18.6847L13.4241 17.243C12.9621 17.3524 12.4812 17.4093 11.9872 17.4093C8.59423 17.4093 5.81615 14.7138 5.58401 10.8293L5.57976 10.7458ZM19.9991 10.8097C19.9454 11.9803 19.7068 13.0698 19.3168 14.0514L18.0347 12.7867C18.2149 12.2158 18.3336 11.6038 18.3817 10.9576L18.3917 10.8063C18.3927 10.7876 18.3938 10.7672 18.3947 10.7453C18.4058 10.4969 18.5819 10.3021 18.7954 10.3021H19.5992C19.8207 10.3022 20.0003 10.5114 20.0003 10.7696L19.9991 10.8097ZM16.7951 10.8527C16.7951 11.0795 16.7805 11.3028 16.7522 11.5216L8.54436 3.4251C9.41761 2.49623 10.6374 1.91943 11.9872 1.91943C14.6425 1.91943 16.7951 4.15172 16.7951 6.90538V10.8527ZM11.9872 15.8386C9.40798 15.8386 7.30312 13.7325 7.18458 11.0881L12.0004 15.8386L11.9872 15.8386ZM21.4622 19.5275L4.28727 2.35255C4.10623 2.17151 3.81272 2.17151 3.63169 2.35255L2.97611 3.00813C2.79507 3.18916 2.79507 3.48267 2.97611 3.66371L20.1511 20.8387C20.3321 21.0197 20.6256 21.0197 20.8067 20.8387L21.4622 20.1831C21.6433 20.0021 21.6433 19.7085 21.4622 19.5275Z" fill="#F53F3F"/>
</svg>
