<svg width="16" height="16" viewBox="0 0 16 16" fill="none" xmlns="http://www.w3.org/2000/svg">
<path fill-rule="evenodd" clip-rule="evenodd" d="M13.6961 2.29199C14.0456 2.29199 14.329 2.57534 14.329 2.92488V10.5195C14.329 10.869 14.0456 11.1524 13.6961 11.1524H2.30419C1.95466 11.1524 1.67131 10.869 1.67131 10.5195V2.92488C1.67131 2.57534 1.95466 2.29199 2.30419 2.29199H13.6961ZM14.0121 12.7345C14.1869 12.7345 14.3286 12.8762 14.3286 13.051V13.6839C14.3286 13.8586 14.1869 14.0003 14.0121 14.0003H1.98734C1.81257 14.0003 1.6709 13.8586 1.6709 13.6839V13.051C1.6709 12.8762 1.81257 12.7345 1.98734 12.7345H14.0121ZM7.3473 8.67201C7.3473 8.84677 7.48897 8.98845 7.66374 8.98845H8.32833C8.5031 8.98845 8.64477 8.84677 8.64477 8.67201V6.82208H9.83737C9.9194 6.82208 9.99823 6.79022 10.0572 6.73322C10.1829 6.6118 10.1864 6.41147 10.065 6.28577L8.21569 4.37155C8.19314 4.34139 8.16506 4.31534 8.13279 4.29463C7.98431 4.19936 7.78269 4.23654 7.68246 4.37768L5.91379 6.29082C5.85973 6.3493 5.8297 6.426 5.8297 6.50564C5.8297 6.6804 5.97138 6.82208 6.14614 6.82208H7.3473V8.67201Z" fill="#23C343"/>
</svg>
