<svg width="28" height="30" viewBox="0 0 28 30" fill="none" xmlns="http://www.w3.org/2000/svg">
<path fill-rule="evenodd" clip-rule="evenodd" d="M6.30028 10.8212C6.10466 11.5139 6 12.2447 6 13V21.0714C6 22.1365 6.86345 23 7.92857 23H18.4791L16.0437 20.5646C15.4198 20.8444 14.7281 21 14 21C11.2386 21 9 18.7614 9 16V13.5209L6.30028 10.8212ZM17.4041 19.6623L20.6527 22.9109C21.2503 22.7222 21.7222 22.2503 21.9109 21.6527L18.4803 18.2221C18.2102 18.7657 17.8441 19.2532 17.4041 19.6623ZM13.2582 13H10.7418L6.95256 9.21075C7.24041 8.6765 7.58725 8.17873 7.98434 7.72614L13.2582 13ZM18.9793 16.4583C18.993 16.3074 19 16.1545 19 16V13.1569C19 13.0702 18.9298 13 18.8431 13H15.5209L9.15466 6.63372C10.4994 5.60868 12.1786 5 14 5C18.4183 5 22 8.58172 22 13V19.4791L18.9793 16.4583Z" fill="#F53F3F"/>
<path d="M21.9999 11.5912C21.3291 9.88795 19.9854 8.52456 18.2941 7.82813C19.9854 7.13169 21.3291 5.7683 21.9999 4.06504C22.6708 5.7683 24.0144 7.13169 25.7058 7.82813C24.0144 8.52456 22.6708 9.88795 21.9999 11.5912Z" fill="#F53F3F" stroke="#1F2127"/>
<path d="M5.99994 26.7631C5.32906 25.0598 3.98544 23.6964 2.29409 23C3.98544 22.3036 5.32906 20.9402 5.99994 19.2369C6.67082 20.9402 8.01444 22.3036 9.7058 23C8.01444 23.6964 6.67082 25.0598 5.99994 26.7631Z" fill="#F53F3F" stroke="#1F2127"/>
<path fill-rule="evenodd" clip-rule="evenodd" d="M6.38849 6.13029L22.8697 22.6115C23.0434 22.7852 23.0434 23.0669 22.8697 23.2406L22.2406 23.8697C22.0669 24.0434 21.7852 24.0434 21.6115 23.8697L5.13029 7.38849C4.95657 7.21477 4.95657 6.93311 5.13029 6.75939L5.75939 6.13029C5.93311 5.95657 6.21477 5.95657 6.38849 6.13029Z" fill="#F53F3F"/>
</svg>
