<svg width="24" height="25" viewBox="0 0 24 25" fill="none" xmlns="http://www.w3.org/2000/svg">
<path fill-rule="evenodd" clip-rule="evenodd" d="M19.6194 20.9732L1.53149 2.94306C1.33988 2.75205 1.02921 2.75205 0.8376 2.94306L0.143709 3.63473C-0.0479031 3.82573 -0.0479031 4.1354 0.143709 4.3264L18.2316 22.3566C18.4232 22.5476 18.7339 22.5476 18.9255 22.3566L19.6194 21.6649C19.811 21.4739 19.811 21.1642 19.6194 20.9732ZM0.5 19.6724V8.0738L13.0555 20.6506H1.47825C0.962536 20.6506 0.540028 20.2516 0.502683 19.7455L0.5 19.6724ZM17.6195 15.7282L17.6888 15.7976L21.3702 17.8054C22.0875 18.1966 22.9999 17.727 22.9999 16.9667V8.68386C22.9999 7.92353 22.0875 7.4539 21.3702 7.84508L17.6195 9.89073V15.7282ZM6.90939 4.99983L16.152 14.2582V5.978L16.1494 5.905C16.112 5.39886 15.6895 4.99983 15.1738 4.99983H6.90939Z" fill="#F53F3F"/>
</svg>
