<svg width="24" height="24" viewBox="0 0 24 24" fill="none" xmlns="http://www.w3.org/2000/svg">
<path fill-rule="evenodd" clip-rule="evenodd" d="M5.57951 10.7458C5.56864 10.4972 5.39249 10.3022 5.17887 10.3021L4.36568 10.3023L4.30973 10.3083C4.1115 10.3461 3.9647 10.5519 3.97428 10.7914L3.98598 11.0095C4.27646 15.5335 7.33016 18.7882 11.1867 19.2332L11.1846 19.2791V20.4809H9.10221C8.92519 20.4809 8.78169 20.6244 8.78169 20.8014V21.763C8.78169 21.94 8.92519 22.0835 9.10221 22.0835H14.8717C15.0487 22.0835 15.1922 21.94 15.1922 21.763V20.8014C15.1922 20.6244 15.0487 20.4809 14.8717 20.4809H12.7892L12.7888 19.2558L12.7872 19.2331C13.5201 19.1486 14.2239 18.9622 14.8854 18.6847L13.4239 17.243C12.9619 17.3524 12.4809 17.4093 11.9869 17.4093C8.59399 17.4093 5.81591 14.7138 5.58376 10.8293L5.57951 10.7458ZM19.9989 10.8097C19.9451 11.9803 19.7065 13.0698 19.3165 14.0514L18.0345 12.7867C18.2146 12.2158 18.3333 11.6038 18.3815 10.9576L18.3914 10.8063C18.3925 10.7876 18.3935 10.7672 18.3945 10.7453C18.4056 10.4969 18.5817 10.3021 18.7951 10.3021H19.5989C19.8205 10.3022 20.0001 10.5114 20.0001 10.7696L19.9989 10.8097ZM16.7948 10.8527C16.7948 11.0795 16.7802 11.3028 16.7519 11.5216L8.54412 3.4251C9.41736 2.49623 10.6372 1.91943 11.9869 1.91943C14.6423 1.91943 16.7948 4.15172 16.7948 6.90538V10.8527ZM11.9869 15.8386C9.40773 15.8386 7.30287 13.7325 7.18434 11.0881L12.0001 15.8386L11.9869 15.8386ZM21.462 19.5275L4.28702 2.35255C4.10599 2.17151 3.81248 2.17151 3.63144 2.35255L2.97586 3.00813C2.79483 3.18916 2.79483 3.48267 2.97586 3.66371L20.1508 20.8387C20.3319 21.0197 20.6254 21.0197 20.8064 20.8387L21.462 20.1831C21.643 20.0021 21.643 19.7085 21.462 19.5275Z" fill="#F53F3F"/>
</svg>
