<svg width="24" height="24" viewBox="0 0 24 24" fill="none" xmlns="http://www.w3.org/2000/svg">
<path d="M21.0187 4C21.2808 4 21.4933 4.21251 21.4933 4.47466V5.42399C21.4933 5.68614 21.2808 5.89865 21.0187 5.89865H2.9815C2.71935 5.89865 2.50684 5.68614 2.50684 5.42399V4.47466C2.50684 4.21251 2.71935 4 2.9815 4H21.0187Z" fill="white"/>
<path fill-rule="evenodd" clip-rule="evenodd" d="M20.544 7.4375C21.0683 7.4375 21.4933 7.86253 21.4933 8.38682V19.7787C21.4933 20.303 21.0683 20.728 20.544 20.728H3.45616C2.93186 20.728 2.50684 20.303 2.50684 19.7787V8.38682C2.50684 7.86253 2.93186 7.4375 3.45616 7.4375H20.544ZM5.00008 15.5C5.00008 15.2239 5.22394 15 5.50008 15H6.50008C6.77622 15 7.00008 15.2239 7.00008 15.5V18.5C7.00008 18.7761 6.77622 19 6.50008 19H5.50008C5.22394 19 5.00008 18.7761 5.00008 18.5V15.5ZM13.5001 12C13.2239 12 13.0001 12.2239 13.0001 12.5V18.5C13.0001 18.7761 13.2239 19 13.5001 19H14.5001C14.7762 19 15.0001 18.7761 15.0001 18.5V12.5C15.0001 12.2239 14.7762 12 14.5001 12H13.5001ZM9.00008 10.5C9.00008 10.2239 9.22394 10 9.50008 10H10.5001C10.7762 10 11.0001 10.2239 11.0001 10.5V18.5C11.0001 18.7761 10.7762 19 10.5001 19H9.50008C9.22394 19 9.00008 18.7761 9.00008 18.5V10.5ZM17.5001 15C17.2239 15 17.0001 15.2239 17.0001 15.5V18.5C17.0001 18.7761 17.2239 19 17.5001 19H18.5001C18.7762 19 19.0001 18.7761 19.0001 18.5V15.5C19.0001 15.2239 18.7762 15 18.5001 15H17.5001Z" fill="white"/>
</svg>
