<svg width="14" height="14" viewBox="0 0 14 14" fill="none" xmlns="http://www.w3.org/2000/svg">
<path d="M1.75 5.375C1.75 4.82272 2.19772 4.375 2.75 4.375H4.31677C4.49801 4.375 4.67585 4.32574 4.83126 4.23249L8.2115 2.20435C8.54476 2.00439 8.96875 2.24445 8.96875 2.6331V11.3669C8.96875 11.7556 8.54476 11.9956 8.2115 11.7957L4.83126 9.76751C4.67585 9.67426 4.49801 9.625 4.31677 9.625H2.75C2.19772 9.625 1.75 9.17729 1.75 8.625V5.375Z" fill="white" stroke="white" stroke-width="1.5"/>
<path d="M11.8125 5.03125C12.211 5.48024 12.4687 6.19498 12.4687 7C12.4687 7.80502 12.211 8.51976 11.8125 8.96875" stroke="white" stroke-width="1.5" stroke-linecap="round"/>
</svg>
