<svg width="20" height="20" viewBox="0 0 20 20" fill="none" xmlns="http://www.w3.org/2000/svg">
<path d="M17.7485 11.8094L16.3199 10.9879C15.9747 10.7856 15.7604 10.4165 15.7604 10.0117V9.99984C15.7604 9.59508 15.9747 9.22603 16.3199 9.02365L17.7485 8.20222C18.0342 8.03555 18.1295 7.67841 17.9628 7.39269L16.1771 4.29746C16.0104 4.01174 15.6533 3.9165 15.3676 4.08317L13.939 4.9046C13.5938 5.10698 13.1652 5.07127 12.8199 4.86888C12.8199 4.86888 12.808 4.86888 12.808 4.85698C12.4628 4.64269 12.2366 4.29746 12.2366 3.9046V2.26174C12.2366 1.92841 11.9747 1.6665 11.6414 1.6665H8.06994C7.73661 1.6665 7.47471 1.92841 7.47471 2.26174V3.9046C7.47471 4.29746 7.23661 4.64269 6.90328 4.84508C6.90328 4.84508 6.89137 4.84508 6.89137 4.85698C6.54613 5.05936 6.11756 5.09508 5.77232 4.89269L4.34375 4.07127C4.05804 3.9046 3.68899 3.99984 3.53423 4.28555L1.74851 7.38079C1.58185 7.6665 1.67709 8.03555 1.9628 8.19031L3.39137 9.01174C3.73661 9.21412 3.9509 9.58317 3.9509 9.98793V9.99984C3.9509 10.4046 3.73661 10.7736 3.39137 10.976L1.9628 11.7975C1.67709 11.976 1.58185 12.3332 1.74851 12.6189L3.53423 15.7141C3.7009 15.9998 4.05804 16.0951 4.34375 15.9284L5.77232 15.107C6.11756 14.9046 6.54613 14.9403 6.89137 15.1427C6.89137 15.1427 6.90328 15.1427 6.90328 15.1546C7.24851 15.357 7.47471 15.7022 7.47471 16.0951V17.7379C7.47471 18.0594 7.73661 18.3332 8.06994 18.3332H11.6414C11.9747 18.3332 12.2366 18.0594 12.2366 17.7379V16.0951C12.2366 15.7022 12.4747 15.357 12.808 15.1546C12.808 15.1546 12.8199 15.1546 12.8199 15.1427C13.1652 14.9403 13.5938 14.9046 13.939 15.107L15.3676 15.9284C15.6533 16.0951 16.0223 15.9998 16.1771 15.7141L17.9628 12.6189C18.1295 12.3332 18.0342 11.976 17.7485 11.8094ZM9.85566 12.3808C8.54613 12.3808 7.47471 11.3094 7.47471 9.99984C7.47471 8.69031 8.54613 7.61889 9.85566 7.61889C11.1652 7.61889 12.2366 8.69031 12.2366 9.99984C12.2366 11.3094 11.1652 12.3808 9.85566 12.3808Z" fill="white"/>
<circle cx="10" cy="10" r="10" fill="#F53F3F"/>
<path d="M2.93299 8.3263C3.95361 7.30568 6.65464 6.6665 9.97423 6.6665C12.0567 6.6665 13.9639 6.92424 15.3351 7.38815C16.7268 7.86238 17.4897 8.52217 17.4897 9.25413V10.9964L17.5 11.0067C17.5 11.0273 17.4897 11.0479 17.4897 11.0789C17.4485 11.3572 17.3247 11.6046 17.1289 11.8005C16.8608 12.0686 16.4897 12.2026 16.1186 12.151L13.9021 11.8933C13.2526 11.8315 12.7887 11.316 12.7887 10.6665L12.7268 9.52217L12.6546 9.50156C11.6753 9.26444 10.7887 9.15104 9.9433 9.15104C9.09794 9.15104 8.21134 9.26444 7.23196 9.50156L7.1701 9.52217V10.6768C7.1701 11.017 7.04639 11.3263 6.80928 11.5531C6.60309 11.7593 6.34536 11.8727 6.0567 11.9036L3.85052 12.151H3.7268C3.40722 12.1613 3.10825 12.0479 2.88144 11.8315C2.63402 11.6046 2.5 11.2748 2.5 10.9242V9.22321C2.51031 8.90362 2.65464 8.60465 2.93299 8.3263Z" fill="white"/>
</svg>
